# xmcd
#
# Track frame offsets:
#	150
#	12471
#	24231
#	35798
#	55043
#	66977
#	82799
#	92702
#	100168
#	116075
#	128200
#	138162
#	147097
#	157830
#	168361
#	180635
#	196339
#	208937
#	218428
#	230585
#	248295
#	263666
#	277723
#	292103
#	304046
#	311189
#	324046
#	339093
#
# Disc length: 4705 seconds
#
# Revision: 0
# Processed by: cddbd v1.4PL0 Copyright (c) Steve Scherf et al.
# Submitted via: MusicWizard 6.0.0
#
DISCID=79125f1c
DTITLE=Johnny Cash - A Believer Sings The Truth/ Believe In Him
DYEAR=1900
DGENRE=Country
TTITLE0=Wings In The Morning
TTITLE1=Gospel Boogie
TTITLE2=Over The Next Hill We'll Be Home (& Anita Carter)
TTITLE3=He's Alive (& June Carter Cash)
TTITLE4=I've Got Jesus In My Soul
TTITLE5=When He Comes (& Rosanne Cash)
TTITLE6=I Was There When It Happened (So I Guess I Ought To Know) (&
TTITLE7=I'm A Newborn Man
TTITLE8=There Are Strange Things Happening Every Day
TTITLE9=Children, Go Where I Send Thee
TTITLE10=I'm Just An Old Chunk Of Coal
TTITLE11=Lay Me Down In Dixie (& Cindy Cash)
TTITLE12=Don't Take Everybody For Your Friend
TTITLE13=You'll Get Yours, I'll Get Mine (& Rodney Crowell)
TTITLE14=Oh Come, Angel Band
TTITLE15=This Train Is Bound For Glory (& June Carter Cash)
TTITLE16=I'm Gonna Try To Be That Way (& Jan Howard)
TTITLE17=What On Earth (Will You Do For Heaven's Sake)
TTITLE18=That's Enough
TTITLE19=The Greatest Cowboy Of Them All
TTITLE20=Believe In Him
TTITLE21=God Ain't No Stained Glass Window
TTITLE22=Over There
TTITLE23=My Children Walk In Truth
TTITLE24=You're Drifting Away
TTITLE25=Belshazzar
TTITLE26=Half A Mile A Day
TTITLE27=One Of These Days I'm Gonna Sit Down And Talk To Paul
EXTD=
EXTT0=
EXTT1=
EXTT2=
EXTT3=
EXTT4=
EXTT5=
EXTT6=
EXTT7=
EXTT8=
EXTT9=
EXTT10=
EXTT11=
EXTT12=
EXTT13=
EXTT14=
EXTT15=
EXTT16=
EXTT17=
EXTT18=
EXTT19=
EXTT20=
EXTT21=
EXTT22=
EXTT23=
EXTT24=
EXTT25=
EXTT26=
EXTT27=
PLAYORDER=
